<svg width="134" height="123" viewBox="0 0 134 123" fill="none" xmlns="http://www.w3.org/2000/svg">
<g filter="url(#filter0_d_12_101)">
<mask id="path-1-inside-1_12_101" fill="white">
<path d="M93.5804 22.933L90.1507 21.8956H89.8241L89.4975 22.6366L89.1708 24.2668L88.6809 25.3041L87.701 29.1572L86.8844 31.8248L86.0678 35.6779L87.3743 36.2706L89.1708 37.0116L91.6206 38.9382L93.5804 39.8273L95.3769 41.7539L96.8467 43.384L98.3166 45.0142L99.6231 46.4962L101.746 50.3492L103.379 54.4987L104.033 57.3145V60.2784L104.523 63.8351L104.033 67.2436L102.236 73.0232C101.801 74.0112 100.832 75.9871 100.44 75.9871C100.048 75.9871 99.6231 77.3703 99.4598 78.0619L95.3769 82.8041L89.9874 87.6946C89.6608 87.991 87.3743 88.8802 87.211 88.8802C87.0804 88.8802 85.7412 89.473 85.0879 89.7693L82.3115 90.9549C81.3861 91.2019 79.4698 91.6959 79.2085 91.6959C78.8819 91.6959 77.5753 92.1405 77.412 92.1405C77.2487 92.1405 75.4522 92.4369 75.2889 92.4369C75.1582 92.4369 73.4924 92.2393 72.6758 92.1405L70.2261 95.8454L66.4698 101.773L64.02 105.923H71.206L73.0025 111.11L74.7989 114.666L77.7386 114.37L83.1281 113.332L87.211 112.592L92.6005 110.813V101.773L96.0301 100.291L98.8065 98.5129L102.563 95.8454L105.176 97.1791L107.789 98.5129L111.382 100.588L113.342 98.5129L115.628 95.8454L118.241 93.3261L122.651 87.5464L121.997 86.8054L119.384 84.4343L116.935 82.6559L114.812 80.5812V79.8402C115.356 79.198 116.445 77.884 116.445 77.7655C116.445 77.6469 116.662 76.5305 116.771 75.9871L117.751 74.357L118.894 69.7629L119.384 68.2809L120.854 67.9846L123.794 67.8364L125.59 67.3918L130 66.799L129.673 56.7217C129.619 56.3265 129.51 55.4768 129.51 55.2397C129.51 55.0026 129.292 54.1529 129.183 53.7578V52.8686L128.857 51.3866V50.4974L128.204 49.4601H119.058H117.751H116.935V49.1637L116.608 48.4227V47.2371L116.118 46.348L115.301 44.5696L114.812 43.5322L113.178 40.7165L112.362 39.3827C112.198 39.1852 111.839 38.7603 111.709 38.6418C111.578 38.5232 111.436 38.1972 111.382 38.049V37.0116L116.608 31.8248L117.425 30.6392L117.915 29.75L106.646 20.1173L105.339 19.2281L104.686 18.7835L104.196 18.9317L98.3166 23.674L97.1733 24.5632L96.6834 24.415L95.8668 23.9704L93.5804 22.933Z"/>
</mask>
<path d="M93.5804 22.933L90.1507 21.8956H89.8241L89.4975 22.6366L89.1708 24.2668L88.6809 25.3041L87.701 29.1572L86.8844 31.8248L86.0678 35.6779L87.3743 36.2706L89.1708 37.0116L91.6206 38.9382L93.5804 39.8273L95.3769 41.7539L96.8467 43.384L98.3166 45.0142L99.6231 46.4962L101.746 50.3492L103.379 54.4987L104.033 57.3145V60.2784L104.523 63.8351L104.033 67.2436L102.236 73.0232C101.801 74.0112 100.832 75.9871 100.44 75.9871C100.048 75.9871 99.6231 77.3703 99.4598 78.0619L95.3769 82.8041L89.9874 87.6946C89.6608 87.991 87.3743 88.8802 87.211 88.8802C87.0804 88.8802 85.7412 89.473 85.0879 89.7693L82.3115 90.9549C81.3861 91.2019 79.4698 91.6959 79.2085 91.6959C78.8819 91.6959 77.5753 92.1405 77.412 92.1405C77.2487 92.1405 75.4522 92.4369 75.2889 92.4369C75.1582 92.4369 73.4924 92.2393 72.6758 92.1405L70.2261 95.8454L66.4698 101.773L64.02 105.923H71.206L73.0025 111.11L74.7989 114.666L77.7386 114.37L83.1281 113.332L87.211 112.592L92.6005 110.813V101.773L96.0301 100.291L98.8065 98.5129L102.563 95.8454L105.176 97.1791L107.789 98.5129L111.382 100.588L113.342 98.5129L115.628 95.8454L118.241 93.3261L122.651 87.5464L121.997 86.8054L119.384 84.4343L116.935 82.6559L114.812 80.5812V79.8402C115.356 79.198 116.445 77.884 116.445 77.7655C116.445 77.6469 116.662 76.5305 116.771 75.9871L117.751 74.357L118.894 69.7629L119.384 68.2809L120.854 67.9846L123.794 67.8364L125.59 67.3918L130 66.799L129.673 56.7217C129.619 56.3265 129.51 55.4768 129.51 55.2397C129.51 55.0026 129.292 54.1529 129.183 53.7578V52.8686L128.857 51.3866V50.4974L128.204 49.4601H119.058H117.751H116.935V49.1637L116.608 48.4227V47.2371L116.118 46.348L115.301 44.5696L114.812 43.5322L113.178 40.7165L112.362 39.3827C112.198 39.1852 111.839 38.7603 111.709 38.6418C111.578 38.5232 111.436 38.1972 111.382 38.049V37.0116L116.608 31.8248L117.425 30.6392L117.915 29.75L106.646 20.1173L105.339 19.2281L104.686 18.7835L104.196 18.9317L98.3166 23.674L97.1733 24.5632L96.6834 24.415L95.8668 23.9704L93.5804 22.933Z" fill="#B6AEAE"/>
<path d="M93.5804 22.933L90.1507 21.8956H89.8241L89.4975 22.6366L89.1708 24.2668L88.6809 25.3041L87.701 29.1572L86.8844 31.8248L86.0678 35.6779L87.3743 36.2706L89.1708 37.0116L91.6206 38.9382L93.5804 39.8273L95.3769 41.7539L96.8467 43.384L98.3166 45.0142L99.6231 46.4962L101.746 50.3492L103.379 54.4987L104.033 57.3145V60.2784L104.523 63.8351L104.033 67.2436L102.236 73.0232C101.801 74.0112 100.832 75.9871 100.44 75.9871C100.048 75.9871 99.6231 77.3703 99.4598 78.0619L95.3769 82.8041L89.9874 87.6946C89.6608 87.991 87.3743 88.8802 87.211 88.8802C87.0804 88.8802 85.7412 89.473 85.0879 89.7693L82.3115 90.9549C81.3861 91.2019 79.4698 91.6959 79.2085 91.6959C78.8819 91.6959 77.5753 92.1405 77.412 92.1405C77.2487 92.1405 75.4522 92.4369 75.2889 92.4369C75.1582 92.4369 73.4924 92.2393 72.6758 92.1405L70.2261 95.8454L66.4698 101.773L64.02 105.923H71.206L73.0025 111.11L74.7989 114.666L77.7386 114.37L83.1281 113.332L87.211 112.592L92.6005 110.813V101.773L96.0301 100.291L98.8065 98.5129L102.563 95.8454L105.176 97.1791L107.789 98.5129L111.382 100.588L113.342 98.5129L115.628 95.8454L118.241 93.3261L122.651 87.5464L121.997 86.8054L119.384 84.4343L116.935 82.6559L114.812 80.5812V79.8402C115.356 79.198 116.445 77.884 116.445 77.7655C116.445 77.6469 116.662 76.5305 116.771 75.9871L117.751 74.357L118.894 69.7629L119.384 68.2809L120.854 67.9846L123.794 67.8364L125.59 67.3918L130 66.799L129.673 56.7217C129.619 56.3265 129.51 55.4768 129.51 55.2397C129.51 55.0026 129.292 54.1529 129.183 53.7578V52.8686L128.857 51.3866V50.4974L128.204 49.4601H119.058H117.751H116.935V49.1637L116.608 48.4227V47.2371L116.118 46.348L115.301 44.5696L114.812 43.5322L113.178 40.7165L112.362 39.3827C112.198 39.1852 111.839 38.7603 111.709 38.6418C111.578 38.5232 111.436 38.1972 111.382 38.049V37.0116L116.608 31.8248L117.425 30.6392L117.915 29.75L106.646 20.1173L105.339 19.2281L104.686 18.7835L104.196 18.9317L98.3166 23.674L97.1733 24.5632L96.6834 24.415L95.8668 23.9704L93.5804 22.933Z" stroke="#B6AEAE" stroke-width="2" mask="url(#path-1-inside-1_12_101)"/>
</g>
<path d="M90.1515 1.59278L89.8249 1.88918L84.2721 10.3363L58.7947 45.607L45.4028 65.6134L64.1842 66.799L46.3827 115.852L47.3626 116H49.3224L83.2922 64.576L91.2948 53.3131L94.8877 47.9781L75.943 47.6817L86.0686 17.8943L91.1314 3.22294L91.4581 2.48196L91.6214 2.03737V1.74098C91.6214 1.62242 91.5125 1.39519 91.4581 1.29639L91.2948 1.1482L91.1314 1L90.8048 1.1482L90.4782 1.29639L90.1515 1.59278Z" fill="#F0DC00" stroke="#F3FF08"/>
<path d="M33.1533 70.9484L50.7915 44.866V26.1933L64.0202 13.3002L62.7136 12.2629L61.7337 10.6327L59.4473 9.29895L50.3016 17.7461V3.9639L49.3217 3.22292L47.5252 2.77834L45.0754 3.22292L43.7689 3.66751L44.2588 16.8569L43.7689 18.3389L43.2789 17.7461L34.6231 9.29895L30.3769 13.3002L43.7689 26.9343V39.5309L38.8694 34.4923L36.2563 32.5657H35.603L34.1332 33.0103L33.8066 34.0477V34.9368V36.7152L41.9724 46.6443L40.8292 49.9046L26.1307 39.5309C25.423 33.8995 23.8442 22.6069 23.191 22.4884C22.5377 22.3698 19.4347 23.2294 17.9648 23.674L19.598 34.4923L8.65579 26.9343L7.02262 27.527H5.71609L5.38945 29.3054L4.57287 31.2319L16.1684 39.5309L4.08292 40.7165L4.57287 46.1997L23.191 44.2732L37.3995 55.2397L36.2563 58.0554H25.6407L18.2915 49.9046H16.1684L13.8819 50.942L13.0653 52.424L18.2915 58.0554L1.14322 57.4626L0 59.3892V60.8711L0.48995 62.0567L1.14322 63.0941H17.9648L12.5754 69.1701L13.8819 70.0593L16.1684 70.9484H18.2915L20.088 70.0593L26.1307 63.3904H33.1533L30.3769 72.5786L22.701 78.21L5.38945 76.7281L4.8995 82.2113L16.8216 83.3969L4.8995 92.1404L6.04272 93.7706L7.02262 95.4007L8.49247 96.4381L20.088 88.5837L19.598 98.2165L24.4975 99.402L25.6407 94.3634L26.7839 83.3969L35.603 76.7281L43.2789 77.7654L33.8066 87.3982V89.0283L34.1332 90.8067L35.603 92.1404H37.3995L38.8694 91.5477L43.7689 86.8054V103.848L49.8116 88.1392L56.181 72.5786L33.8066 71.393L33.1533 70.9484Z" fill="#0087FF"/>
<defs>
<filter id="filter0_d_12_101" x="60.02" y="18.7835" width="73.98" height="103.883" filterUnits="userSpaceOnUse" color-interpolation-filters="sRGB">
<feFlood flood-opacity="0" result="BackgroundImageFix"/>
<feColorMatrix in="SourceAlpha" type="matrix" values="0 0 0 0 0 0 0 0 0 0 0 0 0 0 0 0 0 0 127 0" result="hardAlpha"/>
<feOffset dy="4"/>
<feGaussianBlur stdDeviation="2"/>
<feComposite in2="hardAlpha" operator="out"/>
<feColorMatrix type="matrix" values="0 0 0 0 0 0 0 0 0 0 0 0 0 0 0 0 0 0 0.25 0"/>
<feBlend mode="normal" in2="BackgroundImageFix" result="effect1_dropShadow_12_101"/>
<feBlend mode="normal" in="SourceGraphic" in2="effect1_dropShadow_12_101" result="shape"/>
</filter>
</defs>
</svg>
